<svg width="48" height="48" viewBox="0 0 48 48" fill="none" xmlns="http://www.w3.org/2000/svg">
<circle cx="24" cy="24" r="24" fill="#70CF97" fill-opacity="0.1"/>
<path d="M23.8849 26.9691C23.2014 26.9691 22.5609 26.7554 22.0055 26.3711L23.8849 27.9941L25.7642 26.3711C25.1662 26.7556 24.5256 26.9691 23.8849 26.9691Z" fill="#70CF97"/>
<path d="M32.0854 29.9152C32.0001 29.1036 31.4447 28.4631 30.6759 28.2067L27.1308 27.1389L26.4475 29.5309C26.2767 30.1288 25.5934 30.3424 25.1235 30.0007L23.8849 29.1036L22.6463 30.0006C22.1765 30.3423 21.4932 30.1288 21.3223 29.5309L20.6388 27.1391L17.0938 28.2069C16.325 28.4205 15.7697 29.1038 15.6842 29.9154L15.3427 33.2467C15.2573 33.8446 15.7697 34.3998 16.3677 34.3998H31.3593C32 34.3998 32.4699 33.8446 32.4271 33.2467L32.0854 29.9152Z" fill="#70CF97"/>
<path d="M26.1914 19.3232C25.4226 19.6222 24.6538 19.7503 23.9277 19.7503C22.561 19.7503 21.5785 19.2377 21.1087 18.9387C20.169 20.1773 20.169 22.7827 20.169 22.8254C20.7243 24.7474 22.1765 26.5412 23.8849 26.5412C25.5934 26.5412 27.0455 24.7047 27.6008 22.7827C27.7717 21.4587 26.5331 19.9211 26.1913 19.3231L26.1914 19.3232Z" fill="#70CF97"/>
<path d="M28.1557 18.7682C28.1129 17.7857 27.7286 16.8888 27.0879 16.1628C26.2763 15.8211 25.3794 15.4367 24.7815 15.1803C24.7815 15.1803 21.0656 14.0272 20.2114 17.0169C20.1686 17.0597 20.1686 17.0597 20.126 17.0597C20.0407 17.0597 19.9124 17.1024 19.7417 17.145C19.4855 17.6576 19.3574 18.1701 19.3146 18.768C19.4855 18.9389 19.6136 19.1951 19.6136 19.4515L19.6134 21.8434C19.6134 21.9715 19.5707 22.057 19.5707 22.1851C19.6988 22.4414 19.8269 22.6977 19.955 22.8686C19.955 22.8686 19.3998 19.708 20.8519 18.4266C20.8519 18.4266 22.9875 20.2632 26.3617 18.8537C26.3617 18.8537 27.9847 20.9465 27.6857 22.8686C27.6857 22.8686 27.8138 22.6549 27.8993 22.3134C27.814 22.1852 27.7712 22.0144 27.7712 21.8435V19.4943C27.8567 19.1952 27.9848 18.939 28.1557 18.7681L28.1557 18.7682Z" fill="#70CF97"/>
<path d="M21.0229 27.0116L21.7064 29.4034C21.7917 29.7023 22.1334 29.7877 22.3471 29.617L23.8419 28.5492L21.5783 26.5845L21.0229 27.0116Z" fill="#70CF97"/>
<path d="M26.063 29.4461L26.7465 27.0543L26.1485 26.6272L23.8847 28.5919L25.3796 29.6597C25.6359 29.8306 25.9775 29.7023 26.063 29.4461V29.4461Z" fill="#70CF97"/>
<path d="M18.5887 22.356H18.7168C19.0158 22.356 19.272 22.0998 19.272 21.8008V19.4516C19.272 19.238 19.1439 19.0673 18.973 18.9818C19.0158 16.3337 21.1514 14.1982 23.7994 14.1982C26.4475 14.1982 28.6258 16.3337 28.6258 18.9818C28.4549 19.0672 28.3268 19.238 28.3268 19.4516L28.327 21.8434C28.327 22.1424 28.5832 22.3986 28.8822 22.3986H29.0103C29.5228 22.3986 29.95 21.9716 29.95 21.459V19.9214C29.95 19.4943 29.651 19.1526 29.2665 19.0244C29.2238 16.0347 26.7892 13.6001 23.7995 13.6001C20.8098 13.6001 18.3751 16.0346 18.3324 19.0244C17.9481 19.1525 17.649 19.4942 17.649 19.9214L17.6491 21.4164C17.6491 21.9288 18.0762 22.356 18.5888 22.356H18.5887Z" fill="#70CF97"/>
</svg>
