<svg width="48" height="48" viewBox="0 0 48 48" fill="none" xmlns="http://www.w3.org/2000/svg">
<circle cx="24" cy="24" r="24" fill="#A162F7" fill-opacity="0.1"/>
<path d="M18.3808 20.1969L18.5142 20.3302L20.3653 18.4789L20.232 18.3454C20.7482 17.1018 20.5019 15.6158 19.4904 14.6036C18.4786 13.592 16.9925 13.3458 15.7483 13.8624L17.9902 16.1042L16.1391 17.9553L13.8975 15.7132C13.3809 16.9577 13.6276 18.4439 14.6394 19.455C15.6512 20.4664 17.1372 20.7131 18.3807 20.1969L18.3808 20.1969Z" fill="#A162F7"/>
<path d="M30.6713 18.5275L32.3546 17.9717L33.9279 15.2628L32.7925 14.1277L30.0839 15.7014L29.5285 17.3847L28.1248 18.788L29.2676 19.9308L30.6713 18.5275Z" fill="#A162F7"/>
<path d="M34.1926 32.2871C34.7092 31.0428 34.4635 29.5569 33.4521 28.5451C32.4399 27.5335 30.9537 27.2868 29.7101 27.8034L29.5074 27.6011L27.6561 29.4522L27.8588 29.6549C27.3422 30.8983 27.5886 32.385 28.6007 33.3963C29.6122 34.4078 31.0985 34.6545 32.342 34.138L30.1004 31.8961L31.9517 30.0454L34.1926 32.2871Z" fill="#A162F7"/>
<path d="M28.3951 26.4192C28.5866 26.0791 28.739 25.7141 28.8463 25.3305H30.1526V22.6151H28.8463C28.739 22.2313 28.5861 21.8667 28.3951 21.5265L29.3188 20.6028L27.3989 18.6823L26.4753 19.6061C26.1348 19.4151 25.7699 19.2625 25.3861 19.1545V17.8489H22.6708V19.1545C22.287 19.2625 21.9223 19.4154 21.5816 19.6061L20.658 18.6823L18.7377 20.6028L19.6613 21.5265C19.4703 21.867 19.3177 22.2318 19.2096 22.6151H17.904V25.3305H19.2096C19.3177 25.7145 19.4701 26.0792 19.6613 26.4192L18.7377 27.343L20.658 29.2634L21.5816 28.3395C21.9223 28.5305 22.287 28.6832 22.6708 28.7912V30.0968H25.3861V28.7912C25.7702 28.6832 26.1348 28.5303 26.4753 28.3395L27.3989 29.2634L29.3188 27.343L28.3951 26.4192ZM24.028 26.8433C22.4428 26.8433 21.1575 25.5578 21.1575 23.973C21.1575 22.3878 22.443 21.1024 24.028 21.1024C25.6137 21.1024 26.8986 22.3878 26.8986 23.973C26.8988 25.5578 25.6137 26.8433 24.028 26.8433Z" fill="#A162F7"/>
<path d="M15.9869 34.3987L13.6 32.0114L18.2898 27.3223L20.6767 29.7095L15.9869 34.3987Z" fill="#A162F7"/>
</svg>
