<svg width="48" height="48" viewBox="0 0 48 48" fill="none" xmlns="http://www.w3.org/2000/svg">
<circle cx="24" cy="24" r="24" fill="#FF7E86" fill-opacity="0.1"/>
<path fill-rule="evenodd" clip-rule="evenodd" d="M23.5117 12V13.5659C22.2674 13.8973 20.8454 14.8434 20.8258 15.6332C20.8201 15.8656 21.013 16.0529 21.2455 16.0529H27.4313C27.6638 16.0529 27.8567 15.8656 27.8509 15.6332C27.8314 14.8434 26.4093 13.8974 25.1651 13.5659V12H23.5117Z" fill="#FF6370"/>
<path fill-rule="evenodd" clip-rule="evenodd" d="M26.0412 17.7857C26.0416 17.9739 25.9672 18.1546 25.8343 18.2877C25.7015 18.4209 25.5211 18.4957 25.3329 18.4957C25.1448 18.4957 24.9644 18.4209 24.8316 18.2877C24.6988 18.1546 24.6244 17.9739 24.6247 17.7857C24.6244 17.5976 24.6988 17.417 24.8316 17.2838C24.9644 17.1506 25.1448 17.0757 25.3329 17.0757C25.5211 17.0757 25.7015 17.1506 25.8343 17.2838C25.9672 17.417 26.0416 17.5976 26.0412 17.7857Z" fill="#FF6370"/>
<path fill-rule="evenodd" clip-rule="evenodd" d="M28.0308 17.7857C28.0312 17.9739 27.9568 18.1546 27.824 18.2877C27.6912 18.4209 27.5107 18.4957 27.3225 18.4957C27.1344 18.4957 26.954 18.4209 26.8212 18.2877C26.6884 18.1546 26.614 17.9739 26.6144 17.7857C26.614 17.5976 26.6884 17.417 26.8212 17.2838C26.954 17.1506 27.1345 17.0757 27.3225 17.0757C27.5107 17.0757 27.6912 17.1506 27.824 17.2838C27.9568 17.417 28.0312 17.5976 28.0308 17.7857Z" fill="#FF6370"/>
<path fill-rule="evenodd" clip-rule="evenodd" d="M28.3779 20.1575C28.3783 20.3458 28.3039 20.5264 28.1711 20.6596C28.0383 20.7928 27.8578 20.8675 27.6696 20.8675C27.4815 20.8675 27.3011 20.7928 27.1683 20.6596C27.0355 20.5264 26.9611 20.3458 26.9615 20.1575C26.9611 19.9695 27.0355 19.7888 27.1683 19.6557C27.3011 19.5225 27.4816 19.4475 27.6696 19.4475C27.8578 19.4475 28.0383 19.5225 28.1711 19.6557C28.3039 19.7888 28.3783 19.9695 28.3779 20.1575Z" fill="#FF6370"/>
<path fill-rule="evenodd" clip-rule="evenodd" d="M28.725 22.5296C28.7254 22.7178 28.651 22.8985 28.5182 23.0316C28.3854 23.1648 28.2049 23.2396 28.0167 23.2396C27.8287 23.2396 27.6482 23.1648 27.5154 23.0316C27.3826 22.8985 27.3082 22.7178 27.3086 22.5296C27.3082 22.3415 27.3826 22.1609 27.5154 22.0277C27.6482 21.8945 27.8287 21.8196 28.0167 21.8196C28.205 21.8196 28.3854 21.8945 28.5182 22.0277C28.651 22.1609 28.7254 22.3415 28.725 22.5296Z" fill="#FF6370"/>
<path fill-rule="evenodd" clip-rule="evenodd" d="M26.157 20.3577C26.1574 20.546 26.083 20.7266 25.9501 20.8598C25.8173 20.993 25.6369 21.0677 25.4487 21.0677C25.2606 21.0677 25.0802 20.993 24.9474 20.8598C24.8146 20.7266 24.7402 20.546 24.7405 20.3577C24.7402 20.1697 24.8146 19.989 24.9474 19.8559C25.0802 19.7227 25.2606 19.6477 25.4487 19.6477C25.6369 19.6477 25.8173 19.7227 25.9501 19.8559C26.083 19.989 26.1574 20.1697 26.157 20.3577Z" fill="#FF6370"/>
<path fill-rule="evenodd" clip-rule="evenodd" d="M26.2727 22.9297C26.273 23.118 26.1986 23.2986 26.0658 23.4318C25.933 23.565 25.7526 23.6398 25.5643 23.6398C25.3763 23.6398 25.1958 23.565 25.063 23.4318C24.9302 23.2986 24.8558 23.118 24.8562 22.9297C24.8558 22.7417 24.9302 22.5611 25.063 22.4279C25.1958 22.2947 25.3763 22.2197 25.5643 22.2197C25.7526 22.2197 25.933 22.2947 26.0658 22.4279C26.1986 22.5611 26.273 22.7417 26.2727 22.9297Z" fill="#FF6370"/>
<path fill-rule="evenodd" clip-rule="evenodd" d="M22.6355 17.7857C22.6352 17.9739 22.7096 18.1546 22.8424 18.2877C22.9752 18.4209 23.1556 18.4957 23.3439 18.4957C23.5319 18.4957 23.7124 18.4209 23.8452 18.2877C23.978 18.1546 24.0524 17.9739 24.052 17.7857C24.0524 17.5976 23.978 17.417 23.8452 17.2838C23.7124 17.1506 23.5319 17.0757 23.3439 17.0757C23.1556 17.0757 22.9752 17.1506 22.8424 17.2838C22.7096 17.417 22.6352 17.5976 22.6355 17.7857Z" fill="#FF6370"/>
<path fill-rule="evenodd" clip-rule="evenodd" d="M20.6459 17.7857C20.6455 17.9739 20.7199 18.1546 20.8528 18.2877C20.9856 18.4209 21.166 18.4957 21.3542 18.4957C21.5423 18.4957 21.7227 18.4209 21.8555 18.2877C21.9883 18.1546 22.0627 17.9739 22.0624 17.7857C22.0627 17.5976 21.9883 17.417 21.8555 17.2838C21.7227 17.1506 21.5423 17.0757 21.3542 17.0757C21.166 17.0757 20.9856 17.1506 20.8528 17.2838C20.7199 17.417 20.6455 17.5976 20.6459 17.7857Z" fill="#FF6370"/>
<path fill-rule="evenodd" clip-rule="evenodd" d="M20.2992 20.1575C20.2989 20.3458 20.3733 20.5264 20.5061 20.6596C20.6389 20.7928 20.8193 20.8675 21.0076 20.8675C21.1956 20.8675 21.3761 20.7928 21.5089 20.6596C21.6417 20.5264 21.7161 20.3458 21.7157 20.1575C21.7161 19.9695 21.6417 19.7888 21.5089 19.6557C21.3761 19.5225 21.1956 19.4475 21.0076 19.4475C20.8193 19.4475 20.6389 19.5225 20.5061 19.6557C20.3733 19.7888 20.2989 19.9695 20.2992 20.1575Z" fill="#FF6370"/>
<path fill-rule="evenodd" clip-rule="evenodd" d="M19.9517 22.5296C19.9513 22.7178 20.0257 22.8985 20.1585 23.0316C20.2914 23.1648 20.4718 23.2396 20.66 23.2396C20.8481 23.2396 21.0285 23.1648 21.1613 23.0316C21.2941 22.8985 21.3685 22.7178 21.3682 22.5296C21.3685 22.3415 21.2941 22.1609 21.1613 22.0277C21.0285 21.8945 20.8481 21.8196 20.66 21.8196C20.4718 21.8196 20.2913 21.8945 20.1585 22.0277C20.0257 22.1609 19.9513 22.3415 19.9517 22.5296Z" fill="#FF6370"/>
<path fill-rule="evenodd" clip-rule="evenodd" d="M22.5197 20.3577C22.5194 20.546 22.5938 20.7266 22.7266 20.8598C22.8594 20.993 23.0398 21.0677 23.2281 21.0677C23.4161 21.0677 23.5966 20.993 23.7294 20.8598C23.8622 20.7266 23.9366 20.546 23.9362 20.3577C23.9366 20.1697 23.8622 19.989 23.7294 19.8559C23.5965 19.7227 23.4161 19.6477 23.2281 19.6477C23.0398 19.6477 22.8594 19.7227 22.7266 19.8559C22.5938 19.989 22.5194 20.1697 22.5197 20.3577Z" fill="#FF6370"/>
<path fill-rule="evenodd" clip-rule="evenodd" d="M22.4041 22.9297C22.4037 23.118 22.4781 23.2986 22.6109 23.4318C22.7437 23.565 22.9242 23.6398 23.1124 23.6398C23.3005 23.6398 23.4809 23.565 23.6137 23.4318C23.7465 23.2986 23.8209 23.118 23.8206 22.9297C23.8209 22.7417 23.7465 22.5611 23.6137 22.4279C23.4809 22.2947 23.3005 22.2197 23.1124 22.2197C22.9242 22.2197 22.7437 22.2947 22.6109 22.4279C22.4781 22.5611 22.4037 22.7417 22.4041 22.9297Z" fill="#FF6370"/>
<path fill-rule="evenodd" clip-rule="evenodd" d="M20.5426 24.3982C20.3996 24.3978 20.2582 24.4698 20.1741 24.5855L17.0871 28.8387C17.0311 28.9157 17 29.0108 17 29.106V32.8893C17 33.0084 17.0491 33.1267 17.1332 33.2108C17.2174 33.295 17.3356 33.3439 17.4546 33.3439H31.2224C31.3414 33.3439 31.4597 33.2948 31.5438 33.2108C31.6281 33.1265 31.677 33.0084 31.677 32.8893V29.106C31.677 29.0108 31.6459 28.9157 31.5899 28.8387L28.5029 24.5855C28.4188 24.4698 28.2774 24.3978 28.1344 24.3982H20.5426ZM20.6466 24.8636H28.0305C28.1187 24.864 28.205 24.9094 28.2552 24.9817L29.6522 26.9747C29.7098 27.0569 29.7173 27.1717 29.6708 27.2606C29.6244 27.3497 29.526 27.4092 29.4256 27.4088H19.2512C19.1508 27.4092 19.0525 27.3495 19.006 27.2606C18.9595 27.1715 18.967 27.0569 19.0247 26.9747L20.4216 24.9817C20.4718 24.9094 20.5582 24.864 20.6463 24.8636H20.6466ZM19.4042 29.322C20.0062 29.322 20.4939 29.8099 20.4939 30.4117C20.4939 31.0136 20.006 31.5013 19.4042 31.5013C18.8023 31.5013 18.3145 31.0134 18.3145 30.4117C18.3145 29.8097 18.8024 29.322 19.4042 29.322ZM29.2729 29.322C29.8748 29.322 30.3626 29.8099 30.3626 30.4117C30.3626 31.0136 29.8746 31.5013 29.2729 31.5013C28.6709 31.5013 28.1823 31.0134 28.1823 30.4117C28.1823 29.8097 28.671 29.322 29.2729 29.322Z" fill="#FF6370"/>
<path fill-rule="evenodd" clip-rule="evenodd" d="M18.5373 32.8215V35.3578C18.5373 35.7137 18.8319 35.9999 19.198 35.9999H20.238C20.6043 35.9999 20.8987 35.7137 20.8987 35.3578V32.8215H18.5373ZM27.956 32.8215V35.3578C27.956 35.7137 28.2506 35.9999 28.6167 35.9999H29.6557C30.022 35.9999 30.3174 35.7137 30.3174 35.3578V32.8215H27.956Z" fill="#FF6370"/>
<path fill-rule="evenodd" clip-rule="evenodd" d="M29.5322 26.0906L30.5213 27.4587L30.817 27.4138C31.2231 27.3523 31.5481 26.9931 31.4465 26.6309C31.2345 25.8746 30.1856 26.0905 29.5321 26.0905L29.5322 26.0906Z" fill="#FF6370"/>
<path fill-rule="evenodd" clip-rule="evenodd" d="M19.145 26.0906L18.156 27.4587L17.8602 27.4138C17.4542 27.3523 17.1292 26.9931 17.2307 26.6309C17.4428 25.8746 18.4917 26.0905 19.1452 26.0905L19.145 26.0906Z" fill="#FF6370"/>
</svg>
