<svg width="18" height="18" viewBox="0 0 18 18" fill="none" xmlns="http://www.w3.org/2000/svg">
<path fill-rule="evenodd" clip-rule="evenodd" d="M8.99996 17.3334C13.6023 17.3334 17.3333 13.6025 17.3333 9.00008C17.3333 4.39771 13.6023 0.666748 8.99996 0.666748C4.39759 0.666748 0.666626 4.39771 0.666626 9.00008C0.666626 13.6025 4.39759 17.3334 8.99996 17.3334ZM14.2665 13.0882C15.144 11.9593 15.6666 10.5407 15.6666 9.00008C15.6666 5.6004 13.1219 2.79507 9.83329 2.38499V5.77176C11.271 6.1418 12.3333 7.44688 12.3333 9.00008C12.3333 9.61829 12.165 10.1972 11.8717 10.6935L14.2665 13.0882ZM13.0879 14.2667L10.6932 11.8719C10.1969 12.1652 9.6181 12.3334 8.99996 12.3334C8.38182 12.3334 7.80298 12.1652 7.30673 11.8719L4.91199 14.2667C6.04088 15.1442 7.4594 15.6667 8.99996 15.6667C10.5405 15.6667 11.959 15.1442 13.0879 14.2667ZM5.66663 9.00008C5.66663 9.61829 5.83492 10.1972 6.12819 10.6935L3.73347 13.0882C2.85588 11.9593 2.33329 10.5407 2.33329 9.00008C2.33329 5.6004 4.87803 2.79507 8.16663 2.38499V5.77176C6.72894 6.1418 5.66663 7.44688 5.66663 9.00008ZM8.99996 10.6667C9.92043 10.6667 10.6666 9.92056 10.6666 9.00008C10.6666 8.07961 9.92043 7.33342 8.99996 7.33342C8.07948 7.33342 7.33329 8.07961 7.33329 9.00008C7.33329 9.92056 8.07948 10.6667 8.99996 10.6667Z" fill="#72767C"/>
</svg>
