<svg width="18" height="16" viewBox="0 0 18 16" fill="none" xmlns="http://www.w3.org/2000/svg">
<path d="M16.31 5.63L15.17 2.20917C15.0046 1.71124 14.6865 1.27808 14.2609 0.971257C13.8353 0.66443 13.3238 0.499535 12.7991 0.500001H5.20079C4.67612 0.499535 4.16464 0.66443 3.73903 0.971257C3.31342 1.27808 2.99533 1.71124 2.82996 2.20917L1.68996 5.63C1.38714 5.75707 1.12852 5.97063 0.946497 6.24397C0.76447 6.51731 0.667117 6.83827 0.666626 7.16667V11.3333C0.666626 11.9608 1.01913 12.5017 1.53246 12.7858C1.52163 12.8408 1.49996 12.8908 1.49996 12.9483V14.6667C1.49996 14.8877 1.58776 15.0996 1.74404 15.2559C1.90032 15.4122 2.11228 15.5 2.33329 15.5H3.16663C3.38764 15.5 3.5996 15.4122 3.75588 15.2559C3.91216 15.0996 3.99996 14.8877 3.99996 14.6667V13H14V14.6667C14 14.8877 14.0878 15.0996 14.244 15.2559C14.4003 15.4122 14.6123 15.5 14.8333 15.5H15.6666C15.8876 15.5 16.0996 15.4122 16.2559 15.2559C16.4122 15.0996 16.5 14.8877 16.5 14.6667V12.9483C16.5 12.8908 16.4783 12.84 16.4675 12.7858C16.7286 12.6434 16.9468 12.4335 17.0991 12.178C17.2514 11.9225 17.3323 11.6308 17.3333 11.3333V7.16667C17.3333 6.47583 16.91 5.8825 16.31 5.63ZM2.33329 11.3333V7.16667H15.6666L15.6683 11.3333H2.33329ZM5.20079 2.16667H12.7983C13.1575 2.16667 13.4758 2.395 13.5891 2.73667L14.5108 5.5H3.48913L4.40996 2.73667C4.46525 2.57066 4.57139 2.42627 4.71333 2.32397C4.85528 2.22166 5.02582 2.16663 5.20079 2.16667Z" fill="#72767C"/>
</svg>
